# xmcd
#
# Track frame offsets:
#	150
#	16316
#	34249
#	47127
#	65655
#	82727
#	98153
#	118838
#	138510
#	157113
#
# Disc length: 2277 seconds
#
# Revision: 0
# Processed by: cddbd v1.5.2PL0 Copyright (c) Steve Scherf et al.
# Submitted via: EZCDAudioConverter 1.0.4.1
#
DISCID=8408e30a
DTITLE=Patty Loveless - Country
DYEAR=2012
DGENRE=Country
TTITLE0=Blame It On Your Heart
TTITLE1=Nothing But The Wheel
TTITLE2=I Try To Think About Elvis
TTITLE3=You Don't Even Know Who I Am
TTITLE4=Halfway Down
TTITLE5=You Can Feel Bad
TTITLE6=Lonely Too Long
TTITLE7=The Trouble With The Truth
TTITLE8=You Don't Seem To Miss Me
TTITLE9=High On Love
EXTD=
EXTT0=
EXTT1=
EXTT2=
EXTT3=
EXTT4=
EXTT5=
EXTT6=
EXTT7=
EXTT8=
EXTT9=
PLAYORDER=
